<svg xmlns="http://www.w3.org/2000/svg" viewBox="0 0 640 512"><!--!Font Awesome Free 6.5.1 by @fontawesome - https://fontawesome.com License - https://fontawesome.com/license/free Copyright 2024 Fonticons, Inc.--><path d="M86.3 197.8a51.8 51.8 0 0 0 -41.6 20.1V156a8.2 8.2 0 0 0 -8.2-8.2H8.2A8.2 8.2 0 0 0 0 156V333.6a8.2 8.2 0 0 0 8.2 8.2H36.6a8.2 8.2 0 0 0 8.2-8.2v-8.1c11.6 13.4 25.9 19.8 41.6 19.8 34.6 0 61.9-26.2 61.9-73.8C148.3 225.5 121.2 197.8 86.3 197.8zM71.5 305.7c-9.6 0-21.2-4.9-26.7-12.5V250.2c5.5-7.6 17.2-12.8 26.7-12.8 17.7 0 31.1 13.1 31.1 34C102.6 292.6 89.3 305.7 71.5 305.7zm156.4-59a17.4 17.4 0 1 0 17.4 17.4A17.4 17.4 0 0 0 227.9 246.7zM274 156.7V112a13.3 13.3 0 1 0 -10.2 0V156.7a107.5 107.5 0 1 0 10.2 0zm86 107.4c0 30.5-40.8 55.3-91.1 55.3s-91.1-24.8-91.1-55.3 40.8-55.3 91.1-55.3S359.9 233.5 359.9 264.1zm-50.2 17.4a17.4 17.4 0 1 0 -17.4-17.4h0A17.4 17.4 0 0 0 309.8 281.5zM580.7 250.5c-14.8-2.6-22.4-3.8-22.4-9.9 0-5.5 7.3-9.9 17.7-9.9a65.6 65.6 0 0 1 34.5 10.1 8.2 8.2 0 0 0 11.3-2.5c.1-.1 .1-.2 .2-.3l8.6-14.9a8.2 8.2 0 0 0 -2.9-11.1 99.9 99.9 0 0 0 -52-14.1c-39 0-60.2 21.5-60.2 46.2 0 36.3 33.7 41.9 57.6 45.6 13.4 2.3 24.1 4.4 24.1 11 0 6.4-5.5 10.8-18.9 10.8-13.6 0-31-6.2-42.6-13.6a8.2 8.2 0 0 0 -11.3 2.5c0 .1-.1 .1-.1 .2l-10.2 16.9a8.2 8.2 0 0 0 2.5 11.1c15.2 10.3 37.7 16.7 59.4 16.7 40.4 0 64-19.8 64-46.5C640 260.6 604.5 254.8 580.7 250.5zm-95.9 60.8a8.2 8.2 0 0 0 -9.5-5.9 23.2 23.2 0 0 1 -4.2 .4c-7.8 0-12.5-6.1-12.5-14.2V240.3h20.3a8.1 8.1 0 0 0 8.1-8.1V209.5a8.1 8.1 0 0 0 -8.1-8.1H458.6V171.1a8.1 8.1 0 0 0 -8.1-8.1H422.3a8.1 8.1 0 0 0 -8.1 8.1h0v30.2H399a8.1 8.1 0 0 0 -8.1 8.1h0v22.7A8.1 8.1 0 0 0 399 240.3h15.1v63.7c0 27 15.4 41.3 43.9 41.3 12.2 0 21.4-2.2 27.6-5.4a8.2 8.2 0 0 0 4.1-9.3z"/></svg>